<svg width="32" height="32" viewBox="0 0 32 32" fill="none" xmlns="http://www.w3.org/2000/svg">
<g id="type=white" clip-path="url(#clip0_8684_2214)">
<g id="logo">
<path id="Union" d="M8.24805 17.4062C11.0808 16.7574 13.9651 17.671 16.5645 18.9707L16.7783 19.0781C17.3337 19.3558 17.9464 19.5 18.5674 19.5H20.123L21.8086 19.0791C22.5564 18.8923 23.1143 19.7614 22.6328 20.3633C22.3023 20.7764 21.8452 21.0699 21.332 21.1982L20.4365 21.4219C20.2283 21.4739 20.0144 21.5 19.7998 21.5H18.2041C17.7422 21.5 17.4664 22.0151 17.7227 22.3994C17.9729 22.7746 18.3946 23 18.8457 23H19.9033C20.0487 23 20.1933 22.9773 20.332 22.9336L22.9688 22.1025C23.8614 21.8209 24.7183 21.4358 25.5215 20.9551L28.9229 18.9189C29.3506 18.6631 29.888 18.6766 30.3027 18.9531C30.7869 19.2762 30.9954 19.8833 30.8115 20.4355L30.7744 20.5469C30.6763 20.8411 30.4856 21.0957 30.2314 21.2734L27.5264 23.165C26.6398 23.7847 25.6923 24.3127 24.6992 24.7412L22.3936 25.7363C21.2255 26.2403 19.9665 26.5 18.6943 26.5C17.3301 26.5 15.9824 26.2009 14.7461 25.624L13.0488 24.832C10.4728 23.6299 7.63598 23.0932 4.79883 23.2705L1.12305 23.5C1.9079 19.8374 5.1595 18.1137 8.24805 17.4062ZM27.123 18.5L25.6709 19.333L24.123 20V5.5H27.123V18.5ZM19.123 18.5C18.145 18.5 17.1888 18.2105 16.375 17.668L16.123 17.5V12.5H19.123V18.5ZM23.123 17.6523C22.2517 18.034 21.3356 18.3041 20.3965 18.4561L20.123 18.5V8.5H23.123V17.6523Z" fill="white"/>
</g>
</g>
<defs>
<clipPath id="clip0_8684_2214">
<rect width="32" height="32" fill="white"/>
</clipPath>
</defs>
</svg>
